<svg height="512pt" viewBox="-88 0 512 512" width="512pt" xmlns="http://www.w3.org/2000/svg"><g fill="#fff" fill-rule="evenodd"><path d="m315.625 266.023438c-.0625-.136719-.132812-.269532-.203125-.402344l-139.054687-260.332032c-1.738282-3.257812-5.132813-5.289062-8.820313-5.289062-3.691406 0-7.082031 2.03125-8.820313 5.289062l-68.730468 128.667969c-2.601563 4.871094-.761719 10.933594 4.109375 13.53125 4.875 2.605469 10.929687.765625 13.53125-4.105469l59.910156-112.15625 130.027344 243.429688c.066406.128906.128906.257812.199219.386719 11.332031 21.214843 17.320312 45.214843 17.320312 69.410156 0 81.359375-66.191406 147.546875-147.546875 147.546875-81.359375 0-147.546875-66.1875-147.546875-147.546875 0-24.195313 5.988281-48.199219 17.320312-69.410156.074219-.132813.140626-.269531.207032-.402344l32.414062-60.683594c2.601563-4.871093.761719-10.929687-4.109375-13.53125-4.871093-2.601562-10.929687-.761719-13.53125 4.109375l-32.628906 61.085938c-.074219.136718-.148437.277344-.210937.417968-12.734376 23.996094-19.460938 51.101563-19.460938 78.414063 0 92.386719 75.160156 167.546875 167.546875 167.546875s167.546875-75.160156 167.546875-167.546875c0-27.320313-6.730469-54.429687-19.46875-78.429687zm0 0"/><path d="m213.378906 262.910156c-4.785156-2.761718-10.898437-1.121094-13.660156 3.660156l-81.664062 141.445313c-2.761719 4.785156-1.121094 10.898437 3.660156 13.660156 1.574218.910157 3.292968 1.34375 4.992187 1.34375 3.453125 0 6.816407-1.792969 8.667969-5.003906l81.664062-141.445313c2.761719-4.78125 1.121094-10.898437-3.660156-13.660156zm0 0"/><path d="m114.121094 250.230469c-22.507813 0-40.820313 18.3125-40.820313 40.820312 0 22.511719 18.3125 40.824219 40.820313 40.824219 22.507812 0 40.820312-18.3125 40.820312-40.824219 0-22.507812-18.3125-40.820312-40.820312-40.820312zm0 61.644531c-11.480469 0-20.820313-9.339844-20.820313-20.820312 0-11.484376 9.339844-20.824219 20.820313-20.824219 11.480468 0 20.820312 9.339843 20.820312 20.824219 0 11.480468-9.339844 20.820312-20.820312 20.820312zm0 0"/><path d="m180.148438 393.535156c0 22.511719 18.316406 40.824219 40.824218 40.824219 22.507813 0 40.820313-18.3125 40.820313-40.824219 0-22.507812-18.3125-40.820312-40.820313-40.820312-22.507812 0-40.824218 18.3125-40.824218 40.820312zm40.824218-20.820312c11.480469 0 20.820313 9.339844 20.820313 20.820312 0 11.484375-9.339844 20.824219-20.820313 20.824219-11.480468 0-20.824218-9.339844-20.824218-20.824219 0-11.480468 9.339843-20.820312 20.824218-20.820312zm0 0"/><path d="m79.96875 183.957031c5.507812 0 10-4.492187 10-10 0-5.507812-4.492188-10-10-10s-10 4.492188-10 10c0 5.507813 4.492188 10 10 10zm0 0"/></g></svg>